# xmcd CD database file
#
# Track frame offsets:
#	150
#	28650
#	52567
#	83590
#	124990
#	173100
#	200045
#	224117
#	258592
#	295042
#	315910
#
# Disc length: 4598 seconds
#
# Revision: 0
# Processed by: cddbd v1.4PL0 Copyright (c) Steve Scherf et al.
# Submitted via: CDex 1.50
#
DISCID=9a11f40b
DTITLE=McCoy Tyner Quartets - 4x4
DYEAR=1980
DGENRE=Jazz
TTITLE0=Inner Guide
TTITLE1=Manha De Carnaval
TTITLE2=Paradox
TTITLE3=Backward Glance
TTITLE4=Forbidden Land
TTITLE5=Pannonica
TTITLE6=I Wanna Stand Over There
TTITLE7=The Seeker
TTITLE8=Blues In The Minor
TTITLE9=Stay As Sweet As You Are
TTITLE10=It's You Or No One
EXTD=YEAR: 1980
EXTT0=
EXTT1=
EXTT2=
EXTT3=
EXTT4=
EXTT5=
EXTT6=
EXTT7=
EXTT8=
EXTT9=
EXTT10=
PLAYORDER=
